<?xml version="1.0" standalone="no"?>
<!DOCTYPE svg PUBLIC "-//W3C//DTD SVG 20010904//EN"
 "http://www.w3.org/TR/2001/REC-SVG-20010904/DTD/svg10.dtd">
<svg version="1.0" xmlns="http://www.w3.org/2000/svg"
 width="400.000000pt" height="400.000000pt" viewBox="0 0 400.000000 400.000000"
 preserveAspectRatio="xMidYMid meet">
<title>IET logo</title>
<desc>
Institute of Educational Technology at The Open University (http://iet.open.ac.uk)
</desc>
<metadata>
Created by potrace 1.11, written by Peter Selinger 2001-2013

http://en.gravatar.com/ietwebmaster
</metadata>
<style>
.pink { fill: #e52771; }
.navy { fill: #1e4b9b; }
</style>
<g transform="translate(0.000000,400.000000) scale(0.100000,-0.100000)"
class="navy" stroke="none">
<path class="i dot" d="M614 3256 c-75 -38 -116 -83 -147 -164 -49 -125 18 -286 146 -345 74
-35 122 -40 191 -22 87 23 149 73 187 150 28 58 31 71 27 137 -8 158 -113 265
-268 275 -59 4 -71 2 -136 -31z"/>
<path class="t ac" d="M3363 3122 c-79 -87 -162 -177 -186 -202 -92 -98 -177 -193 -177
-199 0 -3 114 -5 252 -4 l253 3 3 140 c1 77 1 203 0 279 l-3 139 -142 -156z"/>
<path class="e" d="M1945 2603 c-154 -13 -313 -66 -427 -142 -125 -84 -241 -218 -304
-352 -12 -25 -34 -88 -50 -140 -27 -88 -29 -105 -28 -259 1 -149 3 -173 27
-247 37 -119 61 -167 118 -244 162 -219 392 -325 729 -336 133 -4 170 -2 259
17 190 39 312 95 434 202 51 44 147 160 147 178 0 4 -28 15 -62 25 -35 9 -125
37 -200 62 l-138 45 -51 -46 c-167 -150 -354 -186 -528 -100 -82 41 -167 118
-200 182 -67 131 -76 371 -20 559 29 97 90 168 186 215 58 28 75 32 152 32 47
0 105 -5 128 -12 59 -18 132 -79 171 -145 33 -55 66 -153 56 -169 -3 -4 -121
-8 -264 -8 -226 0 -259 -2 -264 -16 -3 -9 -6 -72 -6 -140 l0 -124 530 0 530 0
0 83 c0 107 -13 183 -53 316 -41 133 -99 233 -187 321 -136 136 -307 217 -502
239 -54 6 -108 10 -120 9 -13 -1 -41 -3 -63 -5z"/>
<path class="i" d="M227 2523 c-4 -3 -7 -89 -7 -190 l0 -183 125 0 125 0 0 -635 0 -635
260 0 260 0 0 825 0 825 -378 0 c-208 0 -382 -3 -385 -7z"/>
<path class="t" d="M2992 1858 c3 -664 3 -674 25 -738 33 -96 93 -159 190 -202 76 -32
81 -33 218 -33 142 1 176 7 348 61 l47 16 0 180 0 180 -27 -6 c-150 -35 -228
-28 -261 21 -15 25 -17 63 -17 418 l0 390 153 3 152 3 -2 187 -3 187 -413 3
-413 2 3 -672z"/>
</g>
</svg>
