<?xml version="1.0" encoding="utf-8"?>
<!-- Generator: Adobe Illustrator 19.1.0, SVG Export Plug-In . SVG Version: 6.00 Build 0)  -->
<svg version="1.0" id="Layer_1" xmlns="http://www.w3.org/2000/svg" xmlns:xlink="http://www.w3.org/1999/xlink" x="0px" y="0px"
	viewBox="0 0 960 560" enable-background="new 0 0 960 560" xml:space="preserve">
<style>
.wb .btn, .wb .o, .wb .m, .wb .p { fill: #fff; }
</style>
<rect width="0" height="0"></rect>
<g class="wb">
	<title>Open Media Player</title>

	<path class="btn" d="M375.6,91.6H30.4C21.3,91.6,14,99,14,108v345.3c0,9,7.4,16.4,16.4,16.4h345.3c9,0,16.4-7.4,16.4-16.4V108
		C392,99,384.6,91.6,375.6,91.6z M217.1,234.3L81,312.9c-7.8,4.5-14.2,0.8-14.2-8.2V147.6c0-9,6.4-12.7,14.2-8.2l136.1,78.6
		C224.9,222.4,224.9,229.8,217.1,234.3z"/>
	<g>
		<path class="p" d="M474.7,350.8V362h0.3c2.9-4.8,6.7-8.2,11.2-10.4c4.5-2.2,9.5-3.2,15-3.2c6.9,0,12.9,1.3,17.9,3.9
			c5,2.6,9.1,6.1,12.4,10.4c3.3,4.3,5.7,9.3,7.3,15.1c1.6,5.7,2.4,11.7,2.4,18c0,5.9-0.8,11.6-2.4,17c-1.6,5.4-4,10.3-7.2,14.5
			c-3.2,4.2-7.3,7.5-12.1,10s-10.5,3.7-16.9,3.7c-5.4,0-10.5-1.1-15.1-3.3c-4.6-2.2-8.4-5.5-11.3-9.8h-0.3v41.7h-24.2V350.8H474.7z
			M506.1,420.6c2.7-1.6,4.8-3.7,6.5-6.2c1.6-2.6,2.8-5.5,3.5-8.9c0.7-3.4,1-6.9,1-10.4c0-3.5-0.4-7-1.1-10.4
			c-0.7-3.4-2-6.4-3.7-9.1c-1.7-2.7-3.9-4.8-6.6-6.5c-2.7-1.6-5.9-2.5-9.8-2.5c-4,0-7.3,0.8-10,2.5c-2.7,1.6-4.8,3.8-6.5,6.4
			s-2.8,5.6-3.5,9c-0.7,3.4-1,6.9-1,10.6c0,3.5,0.4,7,1.1,10.4s1.9,6.4,3.6,8.9c1.6,2.6,3.8,4.6,6.6,6.2c2.7,1.6,6,2.4,9.9,2.4
			C500.1,423,503.4,422.2,506.1,420.6z"/>
		<path class="p" d="M586.2,318.3v120.5H562V318.3H586.2z"/>
		<path class="p" d="M604.3,377.8c0.3-5.7,1.8-10.4,4.3-14.1c2.5-3.7,5.7-6.8,9.5-9c3.9-2.3,8.2-3.9,13-4.9
			c4.8-1,9.7-1.4,14.6-1.4c4.4,0,8.9,0.3,13.4,0.9c4.5,0.6,8.7,1.8,12.4,3.7c3.7,1.8,6.8,4.3,9.2,7.6c2.4,3.2,3.6,7.5,3.6,12.9v45.8
			c0,4,0.2,7.8,0.7,11.4c0.4,3.6,1.2,6.4,2.4,8.2h-24.5c-0.5-1.4-0.8-2.8-1.1-4.2s-0.5-2.9-0.6-4.3c-3.9,4-8.4,6.8-13.6,8.3
			c-5.2,1.6-10.6,2.4-16,2.4c-4.2,0-8.1-0.5-11.8-1.5c-3.6-1-6.8-2.6-9.5-4.8c-2.7-2.2-4.9-4.9-6.4-8.2c-1.5-3.3-2.3-7.2-2.3-11.7
			c0-5,0.9-9.1,2.6-12.3c1.8-3.2,4-5.8,6.8-7.7c2.8-1.9,6-3.4,9.5-4.3c3.6-1,7.2-1.7,10.8-2.3c3.6-0.6,7.2-1,10.7-1.4
			c3.5-0.3,6.6-0.9,9.4-1.5c2.7-0.7,4.9-1.7,6.5-3c1.6-1.3,2.3-3.2,2.2-5.7c0-2.6-0.4-4.7-1.3-6.2c-0.8-1.5-2-2.7-3.4-3.6
			c-1.4-0.8-3.1-1.4-4.9-1.7s-3.9-0.4-6-0.4c-4.8,0-8.5,1-11.2,3.1c-2.7,2-4.3,5.4-4.8,10.2H604.3z M660.1,395.7
			c-1,0.9-2.3,1.6-3.8,2.1c-1.5,0.5-3.2,0.9-4.9,1.3c-1.8,0.3-3.6,0.6-5.5,0.9c-1.9,0.2-3.9,0.5-5.8,0.9c-1.8,0.3-3.6,0.8-5.4,1.4
			c-1.8,0.6-3.3,1.3-4.6,2.3c-1.3,1-2.4,2.2-3.1,3.7c-0.8,1.5-1.2,3.3-1.2,5.6c0,2.2,0.4,4,1.2,5.4c0.8,1.5,1.9,2.6,3.2,3.5
			c1.4,0.9,2.9,1.4,4.8,1.8c1.8,0.3,3.7,0.5,5.6,0.5c4.8,0,8.5-0.8,11.1-2.4c2.6-1.6,4.5-3.5,5.8-5.7c1.2-2.2,2-4.5,2.3-6.7
			c0.3-2.3,0.4-4.1,0.4-5.4V395.7z"/>
		<path class="p" d="M735.5,465c-4.7,3.1-11.1,4.6-19.4,4.6c-2.5,0-5-0.1-7.4-0.3c-2.4-0.2-4.9-0.4-7.4-0.6v-19.9
			c2.3,0.2,4.6,0.4,7,0.7c2.4,0.2,4.8,0.3,7.2,0.2c3.2-0.3,5.5-1.6,7.1-3.7c1.5-2.2,2.3-4.5,2.3-7.2c0-1.9-0.3-3.7-1-5.4L693,350.8
			h25.7l19.9,60.3h0.3l19.2-60.3h25l-36.8,98.9C743.8,456.8,740.2,462,735.5,465z"/>
		<path class="p" d="M817.3,417.7c3.6,3.5,8.8,5.3,15.7,5.3c4.9,0,9.1-1.2,12.6-3.7c3.5-2.4,5.7-5,6.5-7.7h21.3
			c-3.4,10.6-8.6,18.1-15.7,22.6c-7,4.5-15.5,6.8-25.5,6.8c-6.9,0-13.2-1.1-18.7-3.3c-5.6-2.2-10.3-5.4-14.1-9.5
			c-3.9-4.1-6.8-9-8.9-14.6c-2.1-5.7-3.2-11.9-3.2-18.7c0-6.6,1.1-12.7,3.2-18.4c2.2-5.7,5.2-10.6,9.2-14.7c4-4.1,8.7-7.4,14.2-9.8
			c5.5-2.4,11.6-3.6,18.3-3.6c7.5,0,14,1.4,19.6,4.3c5.6,2.9,10.1,6.8,13.7,11.7c3.6,4.9,6.2,10.4,7.7,16.7
			c1.6,6.2,2.2,12.8,1.7,19.6h-63.5C811.6,408.5,813.6,414.2,817.3,417.7z M844.6,371.4c-2.9-3.2-7.3-4.8-13.2-4.8
			c-3.9,0-7.1,0.7-9.6,2c-2.6,1.3-4.6,2.9-6.1,4.9c-1.5,1.9-2.6,4-3.2,6.1c-0.6,2.2-1,4.1-1.1,5.8h39.3
			C849.5,379.2,847.5,374.6,844.6,371.4z"/>
		<path class="p" d="M912.1,350.8v16.3h0.3c1.1-2.7,2.7-5.2,4.6-7.6c1.9-2.3,4.1-4.3,6.6-6c2.5-1.6,5.2-2.9,8-3.8
			c2.8-0.9,5.8-1.4,8.9-1.4c1.6,0,3.3,0.3,5.3,0.9v22.5c-1.1-0.2-2.5-0.4-4.1-0.6c-1.6-0.2-3.1-0.3-4.6-0.3c-4.4,0-8.2,0.7-11.2,2.2
			c-3.1,1.5-5.5,3.5-7.4,6c-1.9,2.6-3.2,5.5-4,8.9c-0.8,3.4-1.2,7.1-1.2,11.1v39.7h-24.2v-88H912.1z"/>
	</g>
	<g>
	<path class="m mm" d="M586.1,252.5c-0.1-5.2-0.8-9.7-2.3-13.4c-1.6-4-3.8-7.3-6.6-9.8c-2.8-2.5-6.2-4.3-10.2-5.4
		c-1.6-0.5-3.3-0.8-5-1c-2.5-0.4-5.1-0.7-7.9-0.7c-6.1,0-11.4,1.5-15.9,4.4c-4.5,3-8,6.4-10.6,10.2c-2.4-5.4-5.9-9.2-10.5-11.4
		c-4.6-2.2-9.7-3.2-15.2-3.2c-5.8,0-10.9,1.3-15.4,3.7c-4.5,2.5-8.3,6-11.5,10.6h-0.3v-11.9h-22.8v88h24.2v-51.1
		c0-4.3,0.6-7.8,1.9-10.5c1.2-2.7,2.8-4.7,4.5-6.1c1.8-1.4,3.6-2.4,5.4-2.9c1.9-0.5,3.4-0.8,4.5-0.8c3.9,0,6.8,0.7,8.8,2
		c2,1.3,3.4,3,4.3,5.2c0.9,2.2,1.3,4.5,1.5,7.1c0.1,2.6,0.2,5.1,0.2,7.7v49.4H531v-49c0-2.7,0.2-5.4,0.6-8.1
		c0.4-2.7,1.2-5.1,2.4-7.2c1.2-2.1,2.8-3.8,4.9-5.1c2.1-1.3,4.9-2,8.3-2c3.4,0,6.1,0.6,8.1,1.7c2,1.1,3.5,2.7,4.5,4.6
		c1,1.9,1.6,4.2,1.9,6.8c0.2,2.6,0.3,5.4,0.3,8.3v49.9h24.2v-58.9C586.2,253.2,586.1,252.9,586.1,252.5z"/>
	<path class="m" d="M635.3,291.4c3.6,3.5,8.8,5.3,15.7,5.3c4.9,0,9.1-1.2,12.6-3.7c3.5-2.4,5.7-5,6.5-7.7h21.3
		c-3.4,10.6-8.6,18.1-15.7,22.6c-7,4.5-15.5,6.8-25.5,6.8c-6.9,0-13.2-1.1-18.7-3.3c-5.6-2.2-10.3-5.4-14.1-9.5
		c-3.9-4.1-6.8-9-8.9-14.6c-2.1-5.7-3.2-11.9-3.2-18.7c0-6.6,1.1-12.7,3.2-18.4c2.2-5.7,5.2-10.6,9.2-14.7c4-4.1,8.7-7.4,14.2-9.8
		c5.5-2.4,11.6-3.6,18.3-3.6c7.5,0,14,1.4,19.6,4.3c5.6,2.9,10.1,6.8,13.7,11.7c3.6,4.9,6.2,10.4,7.7,16.7
		c1.6,6.2,2.2,12.8,1.7,19.6h-63.5C629.7,282.2,631.6,287.9,635.3,291.4z M662.6,245.1c-2.9-3.2-7.3-4.8-13.2-4.8
		c-3.9,0-7.1,0.7-9.6,2c-2.6,1.3-4.6,2.9-6.1,4.9c-1.5,1.9-2.6,4-3.2,6.1c-0.6,2.2-1,4.1-1.1,5.8h39.3
		C667.5,253,665.5,248.3,662.6,245.1z"/>
	<path class="m" d="M764.5,301.3c-2.8,4.8-6.6,8.2-11.2,10.3c-4.6,2.1-9.8,3.1-15.6,3.1c-6.6,0-12.4-1.3-17.4-3.8
		c-5-2.6-9.1-6-12.3-10.4c-3.2-4.4-5.7-9.4-7.3-15.1c-1.6-5.7-2.5-11.6-2.5-17.7c0-5.9,0.8-11.6,2.5-17.1c1.6-5.5,4.1-10.4,7.3-14.6
		c3.2-4.2,7.3-7.6,12.2-10.1c4.9-2.6,10.6-3.8,17-3.8c5.2,0,10.2,1.1,14.9,3.3c4.7,2.2,8.4,5.5,11.2,9.8h0.3V191h24.2v121.6h-23
		v-11.2H764.5z M763.5,257.8c-0.7-3.3-1.9-6.3-3.5-8.9c-1.6-2.6-3.8-4.6-6.4-6.2c-2.6-1.6-5.9-2.4-9.9-2.4c-4,0-7.3,0.8-10,2.4
		c-2.7,1.6-4.9,3.7-6.6,6.3c-1.6,2.6-2.8,5.6-3.6,8.9c-0.7,3.4-1.1,6.8-1.1,10.5c0,3.4,0.4,6.8,1.2,10.2c0.8,3.4,2.1,6.4,3.8,9.1
		c1.8,2.7,4,4.8,6.6,6.5c2.7,1.6,5.9,2.5,9.6,2.5c4,0,7.3-0.8,10-2.4c2.7-1.6,4.8-3.7,6.4-6.4c1.6-2.7,2.7-5.7,3.4-9.1s1-6.9,1-10.6
		C764.5,264.6,764.2,261.2,763.5,257.8z"/>
	<path class="m" d="M822.1,210.7V191h24.2v19.7H822.1z M846.3,216.6v96h-24.2v-96H846.3z"/>
	<path class="m" d="M862.7,251.6c0.3-5.7,1.8-10.4,4.3-14.1c2.5-3.7,5.7-6.8,9.5-9c3.9-2.3,8.2-3.9,13-4.9
		c4.8-1,9.7-1.4,14.6-1.4c4.4,0,8.9,0.3,13.4,0.9c4.5,0.6,8.7,1.8,12.4,3.7c3.7,1.8,6.8,4.3,9.2,7.6c2.4,3.2,3.6,7.5,3.6,12.9V293
		c0,4,0.2,7.8,0.7,11.4c0.4,3.6,1.2,6.4,2.4,8.2h-24.5c-0.5-1.4-0.8-2.8-1.1-4.2c-0.3-1.4-0.5-2.9-0.6-4.3c-3.9,4-8.4,6.8-13.6,8.3
		c-5.2,1.6-10.6,2.4-16,2.4c-4.2,0-8.1-0.5-11.8-1.5c-3.6-1-6.8-2.6-9.5-4.8c-2.7-2.2-4.9-4.9-6.4-8.2c-1.5-3.3-2.3-7.2-2.3-11.7
		c0-5,0.9-9.1,2.6-12.3c1.8-3.2,4-5.8,6.8-7.7c2.8-1.9,6-3.4,9.5-4.3c3.6-1,7.2-1.7,10.8-2.3c3.6-0.6,7.2-1,10.7-1.4
		c3.5-0.3,6.6-0.9,9.4-1.5s4.9-1.7,6.5-3c1.6-1.3,2.3-3.2,2.2-5.7c0-2.6-0.4-4.7-1.3-6.2c-0.8-1.5-2-2.7-3.4-3.6
		c-1.4-0.8-3.1-1.4-4.9-1.7c-1.9-0.3-3.9-0.4-6-0.4c-4.8,0-8.5,1-11.2,3.1c-2.7,2-4.3,5.4-4.8,10.2H862.7z M918.6,269.5
		c-1,0.9-2.3,1.6-3.8,2.1c-1.5,0.5-3.2,0.9-4.9,1.3c-1.8,0.3-3.6,0.6-5.5,0.9c-1.9,0.2-3.9,0.5-5.8,0.9c-1.8,0.3-3.6,0.8-5.4,1.4
		c-1.8,0.6-3.3,1.3-4.6,2.3c-1.3,1-2.4,2.2-3.1,3.7c-0.8,1.5-1.2,3.3-1.2,5.6c0,2.2,0.4,4,1.2,5.4c0.8,1.5,1.9,2.6,3.2,3.5
		c1.4,0.9,2.9,1.4,4.8,1.8c1.8,0.3,3.7,0.5,5.6,0.5c4.8,0,8.5-0.8,11.1-2.4c2.6-1.6,4.5-3.5,5.8-5.7c1.2-2.2,2-4.5,2.3-6.7
		s0.4-4.1,0.4-5.4V269.5z"/>
	</g>
	<g>
		<path class="o" d="M458.4,122.1c2.2-5.7,5.2-10.6,9.2-14.6c4-4,8.7-7.2,14.3-9.4c5.6-2.2,11.8-3.3,18.7-3.3
				c6.9,0,13.2,1.1,18.8,3.3c5.6,2.2,10.4,5.3,14.4,9.4c4,4,7,8.9,9.2,14.6c2.2,5.7,3.2,12.1,3.2,19.2c0,7-1.1,13.4-3.2,19.1
				c-2.2,5.7-5.2,10.5-9.2,14.6c-4,4-8.8,7.1-14.4,9.3c-5.6,2.2-11.9,3.2-18.8,3.2c-6.9,0-13.2-1.1-18.7-3.2
				c-5.6-2.2-10.3-5.2-14.3-9.3c-4-4-7-8.9-9.2-14.6c-2.2-5.7-3.2-12-3.2-19.1C455.2,134.2,456.3,127.9,458.4,122.1z M480.4,151.6
				c0.7,3.4,1.8,6.4,3.5,9c1.6,2.7,3.8,4.8,6.6,6.4c2.7,1.6,6.1,2.4,10.2,2.4c4.1,0,7.5-0.8,10.3-2.4c2.8-1.6,5-3.7,6.6-6.4
				c1.6-2.7,2.8-5.7,3.5-9c0.7-3.3,1-6.8,1-10.3c0-3.5-0.3-7-1-10.4c-0.7-3.4-1.9-6.4-3.5-9c-1.6-2.6-3.9-4.7-6.6-6.4
				c-2.8-1.6-6.2-2.5-10.3-2.5c-4.1,0-7.5,0.8-10.2,2.5c-2.7,1.6-4.9,3.8-6.6,6.4c-1.7,2.6-2.8,5.6-3.5,9c-0.7,3.4-1,6.9-1,10.4
				C479.4,144.8,479.7,148.2,480.4,151.6z"/>
		<path class="o" d="M691.9,164.1c3.6,3.5,8.8,5.3,15.7,5.3c4.9,0,9.1-1.2,12.6-3.7c3.5-2.4,5.7-5,6.5-7.7h21.3
				c-3.4,10.6-8.6,18.1-15.7,22.6c-7,4.5-15.5,6.8-25.5,6.8c-6.9,0-13.2-1.1-18.7-3.3c-5.6-2.2-10.3-5.4-14.1-9.5
				c-3.9-4.1-6.8-9-8.9-14.6c-2.1-5.7-3.2-11.9-3.2-18.7c0-6.6,1.1-12.7,3.2-18.4c2.2-5.7,5.2-10.6,9.2-14.7c4-4.1,8.7-7.4,14.2-9.8
				c5.5-2.4,11.6-3.6,18.3-3.6c7.5,0,14,1.4,19.6,4.3c5.6,2.9,10.1,6.8,13.7,11.7c3.6,4.9,6.2,10.4,7.7,16.7
				c1.6,6.2,2.2,12.8,1.7,19.6h-63.5C686.2,154.9,688.2,160.6,691.9,164.1z M719.2,117.8c-2.9-3.2-7.3-4.8-13.2-4.8
				c-3.9,0-7.1,0.7-9.6,2c-2.6,1.3-4.6,2.9-6.1,4.9c-1.5,1.9-2.6,4-3.2,6.1s-1,4.1-1.1,5.8h39.3C724.1,125.6,722.1,121,719.2,117.8z
				"/>
		<path class="o" d="M786.7,97.2v12.3h0.5c3.1-5.1,7-8.8,11.9-11.2c4.9-2.3,9.9-3.5,15-3.5c6.5,0,11.8,0.9,15.9,2.6
				c4.1,1.8,7.4,4.2,9.8,7.3s4.1,6.9,5,11.4c1,4.5,1.4,9.5,1.4,14.9v54.1h-24.2v-49.7c0-7.3-1.1-12.7-3.4-16.3
				c-2.3-3.6-6.3-5.4-12.1-5.4c-6.6,0-11.3,2-14.3,5.9c-2.9,3.9-4.4,10.4-4.4,19.3v46.1h-24.2v-88H786.7z"/>
		<path class="o" d="M649.1,124.2c-1.6-5.7-4-10.8-7.3-15.1c-3.3-4.3-7.4-7.8-12.4-10.4c-5-2.6-11-3.9-17.9-3.9
			c-5.4,0-10.4,1.1-15,3.2c-4.5,2.2-8.3,5.6-11.2,10.4h-0.3V97.2h-23V217c0.3,0,0.6,0.1,0.9,0.1c1.9,0.3,3.9,0.7,5.7,1.2
			c4.8,1.4,9,3.6,12.5,6.7c2,1.7,3.6,3.8,5.1,6.1v-56.7h0.3c2.9,4.3,6.7,7.6,11.3,9.8c4.6,2.2,9.6,3.3,15.1,3.3
			c6.5,0,12.1-1.2,16.9-3.7c4.8-2.5,8.9-5.8,12.1-10c3.2-4.2,5.6-9,7.2-14.5c1.6-5.4,2.4-11.1,2.4-17
			C651.5,135.9,650.7,129.9,649.1,124.2z M626.3,151.8c-0.7,3.4-1.8,6.4-3.5,8.9c-1.6,2.6-3.8,4.6-6.5,6.2c-2.7,1.6-6,2.4-10,2.4
			c-3.9,0-7.2-0.8-9.9-2.4c-2.7-1.6-4.9-3.7-6.6-6.2c-1.7-2.6-2.8-5.5-3.6-8.9c-0.7-3.4-1.1-6.9-1.1-10.4c0-3.6,0.3-7.2,1-10.6
			c0.7-3.4,1.8-6.4,3.5-9c1.6-2.6,3.8-4.7,6.5-6.4c2.7-1.6,6-2.5,10-2.5c3.9,0,7.1,0.8,9.8,2.5c2.7,1.6,4.9,3.8,6.6,6.5
			c1.7,2.7,2.9,5.7,3.7,9.1c0.7,3.4,1.1,6.9,1.1,10.4C627.3,145,627,148.4,626.3,151.8z"/>
	</g>
</g>
</svg>
