<svg xmlns="http://www.w3.org/2000/svg" viewBox="0 0 87.87 60.31">
    <!-- © The Open University. -->
    <defs>
      <style> .cls-1 { fill: #1e4b9b; } .X-cls-1 { fill: #004a98; } </style>
    </defs>
    <title>The Open University (desktop logo)</title>
    <path class="cls-1" d="M66.35,17.58c-1.29,0-2.42.22-2.42,1.65a3.76,3.76,0,0,0,.35,1.66h4.17a4.34,4.34,0,0,0,.33-1.66c0-1.43-1.12-1.65-2.43-1.65m-3.6,3.81.4-.15a4.58,4.58,0,0,1-.59-2.12c0-2.47,1.53-3.06,3.79-3.06s3.8.7,3.8,3.17a3.87,3.87,0,0,1-.39,1.66h2.48v1.5H62.75Z"/><polygon class="cls-1" points="69.96 55.78 69.96 57.32 61.66 57.32 61.66 60.03 60.27 60.03 60.27 53.05 61.66 53.05 61.66 55.78 69.96 55.78"/>
    <path class="cls-1" d="M64.83,47.19c-.68,0-.9.54-.9,1.22a4.13,4.13,0,0,0,.35,1.74H70v1.5h-9.7v-1.5H63a5,5,0,0,1-.46-1.92c0-1.81.86-2.54,2.32-2.54H70l0,1.5Z"/><path class="cls-1" d="M65.11,30.33c2,0,3.64-.34,3.64-2.37s-1.62-2.34-3.64-2.34S61.46,26,61.46,28s1.63,2.35,3.65,2.35m0,1.61c-2.63,0-5-.78-5-4s2.42-4,5-4,5,.77,5,4-2.42,4-5,4"/>
    <path class="cls-1" d="M63.93,3.61c0-.16,0-1.18.92-1.18H70V.92H64.88c-1.46,0-2.32.75-2.32,2.55a4.44,4.44,0,0,0,.59,2.19l-.4.15v1H70V5.31H64.28a3.93,3.93,0,0,1-.35-1.7"/><path class="cls-1" d="M65.76,13.16V10c-1,0-2,.25-2,1.46s.83,1.62,2,1.69m1.23,0c1.26-.11,1.76-.67,1.76-2.12a6.92,6.92,0,0,0-.4-2.22h1.32a6.83,6.83,0,0,1,.48,2.59c0,2.5-1.52,3.3-3.8,3.3s-3.79-.88-3.79-3.3,1.86-2.94,3.86-2.94H67Z"/>
    <path class="cls-1" d="M65.83,42.74V39.58c-1,0-2,.25-2,1.46s.82,1.63,2,1.7m1.16,0c1.26-.12,1.76-.67,1.76-2.12a6.92,6.92,0,0,0-.4-2.22h1.32A6.83,6.83,0,0,1,70.15,41c0,2.5-1.52,3.29-3.8,3.29s-3.79-.88-3.79-3.29,1.86-2.94,3.86-2.94H67Z"/><path class="cls-1" d="M75.87,54.08H82c2.17,0,2.34,1.31,2.34,2.12s-.17,2.11-2.35,2.11H75.87V59.8H82.2a3.27,3.27,0,0,0,3.61-3.6,3.28,3.28,0,0,0-3.61-3.61H75.87Z"/>
    <path class="cls-1" d="M76.28,42.24a1,1,0,1,1-1,1,1,1,0,0,1,1-1"/><path class="cls-1" d="M84.21,44H78.39V42.47h5.69c.26,0,.37,0,.37-.41v-.25h1.31a5.4,5.4,0,0,1,0,.69c0,.87-.43,1.46-1.58,1.46"/>
    <path class="cls-1" d="M84.21,15.09H78.39V13.6h5.69c.25,0,.37,0,.37-.41v-.25h1.31a5.4,5.4,0,0,1,0,.69c0,.87-.43,1.46-1.58,1.46"/><polygon class="cls-1" points="78.39 35.86 78.39 34.24 85.79 37.06 85.79 38.28 78.39 41.11 78.39 39.49 84 37.68 78.39 35.86"/>
    <path class="cls-1" d="M81.41,29.15c-1,0-2,.24-2,1.44s.82,1.61,2,1.68Zm1.23,3.1c1.26-.11,1.76-.65,1.76-2.07A6.63,6.63,0,0,0,84,28h1.32a6.53,6.53,0,0,1,.48,2.52c0,2.44-1.52,3.22-3.79,3.22s-3.8-.86-3.8-3.22,1.86-2.87,3.86-2.86h.58Z"/><path class="cls-1" d="M79.68,22.45a6,6,0,0,0-.07,1,3.3,3.3,0,0,0,.3,1.41h5.7v1.48H78.38v-1l.4-.15a3.44,3.44,0,0,1-.57-1.79,4.26,4.26,0,0,1,.07-1Z"/>
    <path class="cls-1" d="M83.43,16.3c1.15,0,2.36.72,2.36,2.94a7.64,7.64,0,0,1-.4,2.27H84a7,7,0,0,0,.43-2.29c0-1.16-.49-1.49-1-1.49s-.8.17-.9,1.29c-.19,2.13-1,2.56-2.05,2.56s-2.29-.68-2.29-2.76a5.44,5.44,0,0,1,.42-2.19H80a6.68,6.68,0,0,0-.42,2.21c0,1.1.41,1.33.92,1.33s.63-.21.74-1.3c.19-2.09.92-2.57,2.2-2.57"/><path class="cls-1" d="M85.69,7.61A7.32,7.32,0,0,1,85.79,9a1.88,1.88,0,0,1-2,2.09H79.66v1.25H78.47l-.08-1.25H76.57l-.2-1.46h2v-2h1.27v2h3.93c.61,0,.83-.33.83-1.08a5.73,5.73,0,0,0,0-.92Z"/>
    <polygon class="cls-1" points="78.39 0 78.39 1.54 83.59 3.34 78.39 4.91 78.39 6.57 85.26 4.06 87.87 5.07 87.87 3.67 78.39 0"/><path class="cls-1" d="M79.58,48c0-.16,0-1.15.92-1.15h5.11V45.33H80.53c-1.45,0-2.32.73-2.32,2.49A4.4,4.4,0,0,0,78.8,50l-.4.14v1h7.21V49.62H79.93A3.73,3.73,0,0,1,79.58,48"/>
    <path class="cls-1" d="M76.28,13.25a1,1,0,1,1-1,1,1,1,0,0,1,1-1"/><path class="cls-1" d="M47.91.41H3.05a3.23,3.23,0,0,0-3,2.8V35.85C0,50.18,11.36,60.31,25.38,60.31S50.76,50.18,50.76,35.85V3.36A3.18,3.18,0,0,0,47.91.41M22.12,29.88A11.43,11.43,0,1,1,16.4,7.74a11.43,11.43,0,1,1,5.72,22.14"/>
</svg>
